<svg id="Layer_1" data-name="Layer 1" xmlns="http://www.w3.org/2000/svg" viewBox="0 0 451.12 374"><defs><style>.cls-1{fill:#818181;}</style></defs><title>Cart</title><path class="cls-1" d="M679.92,249.76h-7.74q-83.77,0-167.55-.08a32.79,32.79,0,0,1-12.16-2c-7.25-3-11.24-10.76-10.4-18.29a18.67,18.67,0,0,1,14.79-15.68,38.71,38.71,0,0,1,7.46-.57q99,0,198.06.09c4.7,0,9.84.69,14,2.67,8.81,4.19,11.48,14.26,7.15,24.67-10.83,26-21.81,51.94-32.74,77.91q-16,38-32,76c-5.51,13.08-10.29,16.3-24.31,16.3H439.43c-14.46,0-19.68-3.88-23.89-17.67Q384.17,290.57,352.84,188c-2.23-7.27-2.27-7.26-9.9-7.27-16,0-32,0-48,0-8.36,0-15-3-18.73-10.82a17.73,17.73,0,0,1,11.86-24.82,41.29,41.29,0,0,1,9.42-1q31-.13,62,0c13.63,0,19.16,4.14,23.19,17.33q31.69,103.48,63.22,207c1.29,4.27,3.1,5.77,7.58,5.76q84.51-.21,169,0c3.79,0,6-.93,7.6-4.72,15.94-38.32,32.08-76.55,48.14-114.81C678.76,253.46,679.1,252.19,679.92,249.76Z" transform="translate(-274.47 -144.06)"/><path class="cls-1" d="M419.4,518.06A31.55,31.55,0,0,1,388,486.49c0-17,14.33-31.34,31.24-31.4C436.3,455,451,469.56,451,486.56A31.69,31.69,0,0,1,419.4,518.06Z" transform="translate(-274.47 -144.06)"/><path class="cls-1" d="M679.43,486.79a31.34,31.34,0,1,1-31.31-31.7A31.34,31.34,0,0,1,679.43,486.79Z" transform="translate(-274.47 -144.06)"/></svg>