<svg id="Layer_1" data-name="Layer 1" xmlns="http://www.w3.org/2000/svg" viewBox="0 0 906.18 136.83"><defs><style>.cls-1{fill:none;}.cls-2{fill:#fff;}.cls-3{fill:#f05a22;}</style></defs><title>DUDPLAY</title><polyline class="cls-1" points="581.62 114.63 594.63 114.63 647.99 114.63 663.83 114.63"/><path class="cls-2" d="M359,394.8q-22.09,0-31.56-10.52t-5.89-31l14.84-84.14h23.22l-14.84,84.14q-1.67,9.53,2.31,14.45t13.4,4.93q8.73,0,14.1-4.93t7-14.45l14.84-84.14h23.22l-14.84,84.14q-3.58,20.52-15.19,31T359,394.8Z" transform="translate(-47.16 -261.8)"/><path class="cls-2" d="M419.26,393.06l21.82-123.95h23l-21.64,124Zm20.95,0,3-22h4.28q15.36,0,26.27-6.07a40.51,40.51,0,0,0,16.72-17.45q5.81-11.4,5.8-27.37,0-14.57-9.56-22.69t-26.75-8.12a86.89,86.89,0,0,0-17.37,1.75l-1.48-22a122,122,0,0,1,21-1.74q27.5,0,42.9,13.53t15.41,37.7q0,23.4-9.12,40.07a61.44,61.44,0,0,1-26.23,25.53q-17.11,8.85-41.29,8.86Z" transform="translate(-47.16 -261.8)"/><path class="cls-3" d="M525.74,393.06l21.82-123.95h23.22L549,393.06Zm11.44-28.81,2.88-22h9.77q26.63,0,40.28-8.29t13.66-24.53q0-9.87-7.33-15t-21.64-5.11q-18.69,0-30.12,1.75l2.88-22q10-1.74,26.62-1.74,26.54,0,40.15,9.95T628,306.56q0,28.37-20.51,43T547,364.25Z" transform="translate(-47.16 -261.8)"/><path class="cls-2" d="M630.48,393.06,652.3,269.11h23.22l-21.82,124Zm0,0,3.75-21.3h85l-3.76,21.3Z" transform="translate(-47.16 -261.8)"/><path class="cls-2" d="M725.18,393.06,782.7,269h28.72q1.92,12.39,3.58,24.79t3.14,24.78q1.49,12.4,2.7,24.83t2.27,24.84q1,12.39,1.92,24.79H801.47q-.44-9.69-1.05-19.43t-1.35-19.42q-.75-9.68-1.57-19.42t-1.71-19.46q-.87-9.74-1.83-19.42h-2.79l-42.42,97.15Zm22.52-23.48,3-21.3h62.84l-3,21.3Z" transform="translate(-47.16 -261.8)"/><path class="cls-2" d="M876.35,354.3,849.65,271l23.74-2.79L890.67,330h1.57a134.32,134.32,0,0,0,16-16.85A98.22,98.22,0,0,0,920,293.9a140.56,140.56,0,0,0,8.55-24.79h24.79a148.67,148.67,0,0,1-12.88,34.09,136.27,136.27,0,0,1-19.55,27.62,211.44,211.44,0,0,1-26.66,24.35Zm-8.29,38.76,9-51.85h23.39l-9,51.85Z" transform="translate(-47.16 -261.8)"/><path class="cls-3" d="M258.6,283.24c-1.21.08-2.39.19-3.57.35a47.91,47.91,0,0,0-19.25,7h0a47.46,47.46,0,0,1,19.16-7C256.13,283.43,257.36,283.31,258.6,283.24Z" transform="translate(-47.16 -261.8)"/><path class="cls-3" d="M303.67,288.69a42,42,0,0,0-6-6.49Q284.21,270.41,261.47,269h0q-3-.19-6.15-.19a121.41,121.41,0,0,0-20.89,1.73l-4.28,24.17-.77,4.37L223.76,331l-4.14,23.49-3.89,22.11-2.9,16.47h24.25a103.24,103.24,0,0,0,24.25-2.67,71.94,71.94,0,0,0,16.58-6.09,60.78,60.78,0,0,0,25.94-25.24A74.81,74.81,0,0,0,312.26,331a107.37,107.37,0,0,0,.61-11.54Q312.87,300.91,303.67,288.69Zm-8.49,76.18a47.88,47.88,0,0,1-56,8.61l.37-2.12,3.93-22.53,3.11-17.8,2.19-12.51,4.88-27.95h-.65a85.87,85.87,0,0,0-17.18,1.72l-.11-1.72h0a47.46,47.46,0,0,1,19.16-7c1.21-.16,2.44-.28,3.68-.35l1.24-.05c.5,0,1,0,1.49,0h.14a47.87,47.87,0,0,1,33.71,81.71Z" transform="translate(-47.16 -261.8)"/><path class="cls-2" d="M309.19,331a47.86,47.86,0,0,1-70,42.45l.37-2.12h1.12a56.6,56.6,0,0,0,20.62-3.5,41.65,41.65,0,0,0,5.36-2.5,39.7,39.7,0,0,0,14.79-14.18q.93-1.49,1.74-3.09a52.51,52.51,0,0,0,5.1-17.06,74.24,74.24,0,0,0,.64-10,31.71,31.71,0,0,0-3.14-14.5,25.51,25.51,0,0,0-6.31-7.94q-7-6-18.18-7.49a57.44,57.44,0,0,0-7.63-.54h-.65a85.87,85.87,0,0,0-17.18,1.72l-.11-1.72h0a47.91,47.91,0,0,1,19.25-7c1.18-.16,2.36-.27,3.57-.35l1.24-.05c.5,0,1,0,1.49,0h.14A47.85,47.85,0,0,1,309.19,331Z" transform="translate(-47.16 -261.8)"/><path class="cls-3" d="M258.6,283.24c-1.21.08-2.39.19-3.57.35a47.91,47.91,0,0,0-19.25,7h0a47.46,47.46,0,0,1,19.16-7C256.13,283.43,257.36,283.31,258.6,283.24Z" transform="translate(-47.16 -261.8)"/><path class="cls-2" d="M625.26,312.45a37.32,37.32,0,0,1-12.68,27.71A45.49,45.49,0,0,1,582,351.64a46.65,46.65,0,0,1-20-4.43l.33-1.74h1A55.88,55.88,0,0,0,582,342.6a38.09,38.09,0,0,0,4.85-2A34.78,34.78,0,0,0,600.21,329c.55-.82,1.08-1.66,1.56-2.53a40.16,40.16,0,0,0,4.62-14,56.38,56.38,0,0,0,.57-8.18,23.8,23.8,0,0,0-2.84-11.87,21.44,21.44,0,0,0-5.7-6.51Q592.09,281,582,279.76a59.9,59.9,0,0,0-6.9-.44h-.59A85.42,85.42,0,0,0,559,280.73l-.11-1.41h0a46.09,46.09,0,0,1,17.39-5.7c1.07-.14,2.14-.23,3.23-.29l1.12,0,1.35,0h.13a45.49,45.49,0,0,1,30.46,11.47A37.34,37.34,0,0,1,625.26,312.45Z" transform="translate(-47.16 -261.8)"/><line class="cls-1" x1="23.86" y1="69.2" x2="13.37" y2="69.2"/><path class="cls-2" d="M83.56,361.74,76.33,369A53.8,53.8,0,0,1,60.54,331.5H71A43.91,43.91,0,0,0,83.56,361.74Z" transform="translate(-47.16 -261.8)"/><path class="cls-2" d="M152.3,369.49a53.86,53.86,0,0,1-36.73,15.34V375a43.85,43.85,0,0,0,30-12.27Z" transform="translate(-47.16 -261.8)"/><path class="cls-2" d="M168.62,330.46h-9.5a44,44,0,0,0-12.8-30.55l6.89-6.9A53.86,53.86,0,0,1,168.62,330.46Z" transform="translate(-47.16 -261.8)"/><path class="cls-2" d="M114.57,276.75v10.16a43.89,43.89,0,0,0-30.31,12.57l-7.39-7.39A53.78,53.78,0,0,1,114.57,276.75Z" transform="translate(-47.16 -261.8)"/><circle class="cls-2" cx="67.79" cy="69.29" r="8.32"/><path class="cls-3" d="M66.82,282.2a68.15,68.15,0,0,0-19.66,47.55H61A53.84,53.84,0,0,1,76.66,292ZM153.51,368,164,378.54a68.19,68.19,0,0,0,20-47.83H169.11A53.79,53.79,0,0,1,153.51,368Zm-76,.89-10,10a68.1,68.1,0,0,0,47.54,19.7V384.09A53.83,53.83,0,0,1,77.54,368.92ZM116.07,261.8V276A53.85,53.85,0,0,1,153,291.55l10.33-10.33A68.18,68.18,0,0,0,116.07,261.8Z" transform="translate(-47.16 -261.8)"/><line class="cls-1" x1="24.36" y1="68.45" x2="13.87" y2="68.45"/><circle class="cls-3" cx="68.29" cy="68.54" r="18.46"/><circle class="cls-2" cx="68.29" cy="68.54" r="8.32"/></svg>